<?xml version="1.0" encoding="UTF-8" standalone="no"?>
<svg
   width="24"
   height="24"
   viewBox="0 0 24 24"
   fill="none"
   version="1.1"
   id="svg1"
   sodipodi:docname="arrow_reply_16px.svg"
   inkscape:version="1.4.2 (f4327f4, 2025-05-13)"
   xmlns:inkscape="http://www.inkscape.org/namespaces/inkscape"
   xmlns:sodipodi="http://sodipodi.sourceforge.net/DTD/sodipodi-0.dtd"
   xmlns="http://www.w3.org/2000/svg"
   xmlns:svg="http://www.w3.org/2000/svg">
  <defs
     id="defs1" />
  <sodipodi:namedview
     id="namedview1"
     pagecolor="#505050"
     bordercolor="#ffffff"
     borderopacity="1"
     inkscape:showpageshadow="0"
     inkscape:pageopacity="0"
     inkscape:pagecheckerboard="1"
     inkscape:deskcolor="#505050"
     showgrid="false"
     inkscape:zoom="35.458333"
     inkscape:cx="11.985899"
     inkscape:cy="12"
     inkscape:window-width="1920"
     inkscape:window-height="1111"
     inkscape:window-x="-9"
     inkscape:window-y="1341"
     inkscape:window-maximized="1"
     inkscape:current-layer="svg1" />
  <path
     style="fill:#298ef5;fill-opacity:1;stroke:#298ef5;stroke-width:2.66754;stroke-dasharray:none;stroke-opacity:1"
     d="m 21.395147,19.732989 c -0.159081,-0.07874 -0.278214,-0.206417 -0.382614,-0.410039 -0.05709,-0.111373 -0.0759,-0.232546 -0.09903,-0.638362 -0.049,-0.859541 -0.125695,-1.587458 -0.210235,-1.995061 -0.501462,-2.417822 -2.142125,-4.13094 -4.501417,-4.700208 -0.676459,-0.163221 -0.97409,-0.202304 -1.777613,-0.233416 -0.556428,-0.02156 -9.8343125,-0.05486 -10.0834899,-0.03622 -0.017658,0.0013 0.9450806,0.982913 2.1394188,2.181316 1.1943377,1.198401 2.2265441,2.247692 2.2937922,2.331757 0.2457621,0.307218 0.2890797,0.5881 0.1375815,0.892117 -0.2499088,0.501499 -0.8119055,0.653979 -1.2255741,0.332524 -0.251474,-0.195418 -6.0667506,-6.024308 -6.1854789,-6.199959 -0.089123,-0.131852 -0.099642,-0.174459 -0.099642,-0.403576 0,-0.229823 0.010301,-0.271212 0.1001795,-0.402571 C 1.6156625,10.28375 5.8692453,5.9948633 6.9817507,4.9250753 7.3881301,4.5342997 7.7713185,4.1880852 7.8332801,4.1557095 7.9767771,4.0807307 8.3017955,4.080398 8.4726264,4.1550552 8.9422715,4.3603014 9.1433054,4.953504 8.8787159,5.3533277 8.8274314,5.4308248 7.7788746,6.5047959 6.5485901,7.7399309 l -2.2368815,2.2457 2.4849808,0.0035 c 1.3667393,0.0019 3.7773006,0.0153 5.3568056,0.02973 3.085425,0.02819 3.103698,0.02918 4.057286,0.220613 0.550193,0.110449 0.928472,0.220373 1.435913,0.417261 2.696813,1.04638 4.435198,3.3351 4.854701,6.391591 0.07345,0.535096 0.130381,1.43455 0.115778,1.828966 -0.01113,0.299457 -0.02409,0.362003 -0.103511,0.497521 -0.09324,0.159092 -0.270359,0.316947 -0.435574,0.388186 -0.154658,0.06669 -0.520029,0.05064 -0.682937,-0.03001 z"
     id="path3" />
</svg>
